<?xml version="1.0" standalone="no"?><!DOCTYPE svg PUBLIC "-//W3C//DTD SVG 1.1//EN" "http://www.w3.org/Graphics/SVG/1.1/DTD/svg11.dtd"><svg t="1618089752770" class="icon" viewBox="0 0 1024 1024" version="1.1" xmlns="http://www.w3.org/2000/svg" p-id="1211" width="16" height="16" xmlns:xlink="http://www.w3.org/1999/xlink"><defs><style type="text/css"></style></defs><path d="M896 298.666667H128a128 128 0 0 1-128-128V128a128 128 0 0 1 128-128h768a128 128 0 0 1 128 128v42.666667a128 128 0 0 1-128 128zM128 85.333333a42.666667 42.666667 0 0 0-42.666667 42.666667v42.666667a42.666667 42.666667 0 0 0 42.666667 42.666666h768a42.666667 42.666667 0 0 0 42.666667-42.666666V128a42.666667 42.666667 0 0 0-42.666667-42.666667zM896 1024h-150.186667a128 128 0 0 1-122.453333-90.453333l-118.186667-384A128 128 0 0 1 627.626667 384H896a128 128 0 0 1 128 128v384a128 128 0 0 1-128 128z m-268.373333-554.666667a42.666667 42.666667 0 0 0-34.56 17.493334 42.666667 42.666667 0 0 0-6.4 37.546666l118.186666 384a42.666667 42.666667 0 0 0 42.666667 30.293334H896a42.666667 42.666667 0 0 0 42.666667-42.666667v-384a42.666667 42.666667 0 0 0-42.666667-42.666667zM396.373333 1024H128a128 128 0 0 1-128-128v-384a128 128 0 0 1 128-128h150.186667a128 128 0 0 1 122.453333 90.453333l118.186667 384A128 128 0 0 1 396.373333 1024zM128 469.333333a42.666667 42.666667 0 0 0-42.666667 42.666667v384a42.666667 42.666667 0 0 0 42.666667 42.666667h268.373333a42.666667 42.666667 0 0 0 34.56-17.493334 42.666667 42.666667 0 0 0 6.4-37.546666l-118.186666-384a42.666667 42.666667 0 0 0-42.666667-30.293334z" p-id="1212" fill="#8a8a8a"></path></svg>