<?xml version="1.0" standalone="no"?><!DOCTYPE svg PUBLIC "-//W3C//DTD SVG 1.1//EN" "http://www.w3.org/Graphics/SVG/1.1/DTD/svg11.dtd"><svg t="1624626635802" class="icon" viewBox="0 0 1024 1024" version="1.1" xmlns="http://www.w3.org/2000/svg" p-id="4541" xmlns:xlink="http://www.w3.org/1999/xlink" width="32" height="32"><defs><style type="text/css"></style></defs><path d="M512 62.1C263.9 62.1 62.1 263.9 62.1 512c0 248.1 201.8 449.9 449.9 449.9 248.1 0 449.9-201.8 449.9-449.9 0-248.1-201.8-449.9-449.9-449.9z m0 825.8c-207.3 0-375.9-168.6-375.9-375.9 0-207.3 168.6-375.9 375.9-375.9 207.3 0 375.9 168.6 375.9 375.9 0 207.3-168.6 375.9-375.9 375.9z" p-id="4542"></path><path d="M701.8 324.7c-14.4-14.4-37.9-14.4-52.3 0l-137 137-137-137c-14.4-14.4-37.9-14.4-52.3 0-14.4 14.4-14.4 37.9 0 52.3l137 137-137 137c-14.4 14.4-14.4 37.9 0 52.3 7.2 7.2 16.7 10.8 26.2 10.8s18.9-3.6 26.2-10.8l137-137 137 137c7.2 7.2 16.7 10.8 26.2 10.8s18.9-3.6 26.2-10.8c14.4-14.4 14.4-37.9 0-52.3L565 514l137-137c14.3-14.4 14.3-37.8-0.2-52.3z" p-id="4543"></path></svg>
