<?xml version="1.0" standalone="no"?><!DOCTYPE svg PUBLIC "-//W3C//DTD SVG 1.1//EN" "http://www.w3.org/Graphics/SVG/1.1/DTD/svg11.dtd"><svg t="1624664604813" class="icon" viewBox="0 0 1024 1024" version="1.1" xmlns="http://www.w3.org/2000/svg" p-id="8674" xmlns:xlink="http://www.w3.org/1999/xlink" width="16" height="16"><defs><style type="text/css"></style></defs><path d="M418.450286 480.768h-217.965715A53.979429 53.979429 0 0 1 146.285714 426.569143v-217.6a53.979429 53.979429 0 0 1 54.198857-54.052572h217.965715a53.979429 53.979429 0 0 1 54.198857 54.198858v217.563428a54.235429 54.235429 0 0 1-54.198857 54.089143z" fill="#000000" p-id="8675"></path><path d="M899.364571 356.571429l-153.965714 153.965714a54.857143 54.857143 0 0 1-77.165714 0l-153.6-153.965714a54.308571 54.308571 0 0 1 0-77.165715l153.6-153.6a54.308571 54.308571 0 0 1 77.165714 0l153.965714 153.6a54.528 54.528 0 0 1 0.365715 76.8v0.365715z" fill="#000000" p-id="8676"></path><path d="M418.450286 878.445714h-217.965715A54.235429 54.235429 0 0 1 146.285714 824.32v-218.038857a54.235429 54.235429 0 0 1 54.198857-54.198857h217.965715a54.235429 54.235429 0 0 1 54.198857 54.198857v218.038857a54.235429 54.235429 0 0 1-54.198857 54.125714z" fill="#000000" p-id="8677"></path><path d="M815.835429 878.445714h-217.6a54.308571 54.308571 0 0 1-54.564572-54.125714v-218.038857a54.454857 54.454857 0 0 1 54.198857-54.198857h217.965715a53.979429 53.979429 0 0 1 54.198857 54.198857v218.038857a54.235429 54.235429 0 0 1-54.198857 54.125714z" fill="#000000" p-id="8678"></path></svg>