<?xml version="1.0" standalone="no"?><!DOCTYPE svg PUBLIC "-//W3C//DTD SVG 1.1//EN" "http://www.w3.org/Graphics/SVG/1.1/DTD/svg11.dtd"><svg t="1624114192964" class="icon" viewBox="0 0 1024 1024" version="1.1" xmlns="http://www.w3.org/2000/svg" p-id="5609" width="12" height="12" xmlns:xlink="http://www.w3.org/1999/xlink"><defs><style type="text/css"></style></defs><path d="M804.864 731.136V73.728c0-40.448-32.768-73.216-73.216-73.216H74.24C34.304 0.512 1.536 33.28 1.536 73.728v657.408c0 40.448 32.768 73.216 73.216 73.216H732.16c39.936-0.512 72.704-33.28 72.704-73.216z m-145.92 0H147.456c-40.448 0-73.216-32.768-73.216-73.216V146.432c0-40.448 32.768-73.216 73.216-73.216h511.488c40.448 0 73.216 32.768 73.216 73.216v511.488c-0.512 40.448-33.28 73.216-73.216 73.216z m291.84-511.488h-73.216v73.216c40.448 0 73.216 32.768 73.216 73.216v511.488c0 40.448-32.768 73.216-73.216 73.216H366.592c-40.448 0-73.216-32.768-73.216-73.216H220.672v73.216c0 40.448 32.768 73.216 73.216 73.216h657.408c40.448 0 73.216-32.768 73.216-73.216V292.864c-0.512-40.448-33.28-73.216-73.728-73.216z" fill="" p-id="5610"></path></svg>