<?xml version="1.0" standalone="no"?><!DOCTYPE svg PUBLIC "-//W3C//DTD SVG 1.1//EN" "http://www.w3.org/Graphics/SVG/1.1/DTD/svg11.dtd"><svg t="1624113139736" class="icon" viewBox="0 0 1024 1024" version="1.1" xmlns="http://www.w3.org/2000/svg" p-id="4018" width="12" height="12" xmlns:xlink="http://www.w3.org/1999/xlink"><defs><style type="text/css"></style></defs><path d="M799.232 874.432a62.464 62.464 0 0 1-62.4 62.4h-449.6a62.464 62.464 0 0 1-62.4-62.4v-662.4h574.4v662.4z m-449.6-774.4c0-7.232 5.568-12.8 12.8-12.8H662.4c7.232 0 12.8 5.568 12.8 12.8V137.6H349.632v-37.568z m636.8 37.568h-236.8v-37.568c0-48-39.232-87.232-87.232-87.232H362.432c-48 0-87.232 39.232-87.232 87.232V137.6H37.632a37.568 37.568 0 1 0 0 75.2h112v661.632a137.6 137.6 0 0 0 137.6 137.6h449.6a137.6 137.6 0 0 0 137.6-137.6v-662.4h112A37.568 37.568 0 0 0 1024 174.4a36.864 36.864 0 0 0-37.568-36.8zM512 824a37.568 37.568 0 0 0 37.632-37.568v-400a37.568 37.568 0 1 0-75.2 0v400C474.432 807.232 491.2 824 512 824z m-175.168 0a37.568 37.568 0 0 0 37.568-37.568v-400a37.568 37.568 0 1 0-75.2 0v400A38.592 38.592 0 0 0 336.832 824z m350.4 0a37.568 37.568 0 0 0 37.568-37.568v-400a37.568 37.568 0 1 0-75.2 0v400c0 20.8 16.832 37.568 37.632 37.568z" fill="#000000" p-id="4019"></path></svg>