<?xml version="1.0" standalone="no"?><!DOCTYPE svg PUBLIC "-//W3C//DTD SVG 1.1//EN" "http://www.w3.org/Graphics/SVG/1.1/DTD/svg11.dtd"><svg t="1624631799481" class="icon" viewBox="0 0 1024 1024" version="1.1" xmlns="http://www.w3.org/2000/svg" p-id="67119" width="16" height="16" xmlns:xlink="http://www.w3.org/1999/xlink"><defs><style type="text/css"></style></defs><path d="M914.3 437.4c26.9 34.4 40.4 74.2 40.4 119.3 0 34.4-7.9 66.1-23.7 95-15.8 29-37.4 51.8-64.8 68.5-27.4 16.7-57.3 25-89.8 25H263.8c-36.2 0-69.6-9.6-100.3-28.7-30.6-19.2-55-44.9-73.1-77.3-18.1-32.4-27.2-67.8-27.2-106.1 0-46.2 12.5-87.4 37.6-123.7s57.1-61.9 96.1-76.6V321c0-42.2 10-81.5 29.9-117.9 20-36.3 47.1-65 81.5-86.2 34.4-21.1 71.7-31.7 112.1-31.7s77.8 10.8 112.1 32.4c34.4 21.6 61.3 50.1 80.8 85.4 22.3-15.7 46.9-23.6 73.8-23.6 37.1 0 68.7 13.8 94.7 41.2 26 27.5 39 60.9 39 100.2 0 17.7-2.8 34.9-8.4 51.6 41 9.1 74.9 30.7 101.9 65z m-282.8 39.8c-3.7-9.8-10.7-14.7-20.9-14.7h-90.5v-165c0-6.9-2.1-12.5-6.3-16.9-4.2-4.4-9.5-6.6-16-6.6h-66.9c-6.5 0-11.8 2.2-16 6.6-4.2 4.4-6.3 10.1-6.3 16.9v165h-90.5c-10.2 0-17.2 4.9-20.9 14.7-3.7 9.8-2.3 18.2 4.2 25L449 658.4c3.7 3.9 8.8 5.9 15.3 5.9s11.6-2 15.3-5.9l147.6-156.2c6.6-6.8 8-15.2 4.3-25z" p-id="67120"></path></svg>