<?xml version="1.0" standalone="no"?><!DOCTYPE svg PUBLIC "-//W3C//DTD SVG 1.1//EN" "http://www.w3.org/Graphics/SVG/1.1/DTD/svg11.dtd"><svg t="1624636413136" class="icon" viewBox="0 0 1024 1024" version="1.1" xmlns="http://www.w3.org/2000/svg" p-id="8674" xmlns:xlink="http://www.w3.org/1999/xlink" width="16" height="16"><defs><style type="text/css"></style></defs><path d="M1018.053898 293.605736c-3.189495-47.842419-6.378989-82.92686-54.221408-86.116354-28.705451-3.189495-66.979387 9.568484-79.737365 73.358376l-35.084441 149.906246 9.568484-236.022601c6.378989-66.979387-28.705451-108.442816-79.737365-114.821805-51.031914-6.378989-92.495343 19.136968-102.063827 92.495343l-15.947473 239.212095 6.378989-306.191481C664.019997 48.014652 628.935557 3.361727 574.714148 0.172233c-54.221408-3.189495-98.874333 38.273935-105.253321 95.684838v296.622998l-70.168882-239.212095c-25.515957-60.600397-73.358376-79.737365-121.200795-60.600398C223.869742 118.183533 207.922269 169.215447 220.680248 226.626349l86.116354 347.654912-127.579784-133.958773c-31.894946-38.273935-92.495343-54.221408-137.148268-22.326462s-51.031914 73.358376-31.894946 124.390289c0 0 22.326462 41.46343 89.305849 127.579784C172.837829 759.271948 309.986096 880.472743 351.449526 1024h510.319137s-9.568484-82.92686 63.789892-267.917547c60.600397-153.095741 95.684838-299.812493 95.684838-417.823792 0 0 0-19.136968-3.189495-44.652925z" p-id="8675" fill="#000000"></path></svg>