<?xml version="1.0" standalone="no"?><!DOCTYPE svg PUBLIC "-//W3C//DTD SVG 1.1//EN" "http://www.w3.org/Graphics/SVG/1.1/DTD/svg11.dtd"><svg t="1624619289355" class="icon" viewBox="0 0 1024 1024" version="1.1" xmlns="http://www.w3.org/2000/svg" p-id="2482" width="32" height="32" xmlns:xlink="http://www.w3.org/1999/xlink"><defs><style type="text/css"></style></defs><path d="M138.24 311.04l363.52 197.546667a21.76 21.76 0 0 0 20.48 0l363.52-197.546667a18.773333 18.773333 0 0 0-2.133333-34.56L520.106667 128a21.333333 21.333333 0 0 0-16.213334 0L140.373333 276.48a18.773333 18.773333 0 0 0-2.133333 34.56z" p-id="2483" fill="#000000"></path><path d="M883.626667 454.826667l-78.08-33.28-283.306667 154.026666a21.76 21.76 0 0 1-20.48 0L218.453333 421.546667l-78.08 33.28a20.48 20.48 0 0 0 0 36.266666l363.52 209.066667a19.626667 19.626667 0 0 0 20.48 0l363.52-209.066667a20.48 20.48 0 0 0-4.266666-36.266666z" p-id="2484" fill="#000000"></path><path d="M883.626667 644.266667l-66.56-29.013334-294.826667 160.426667a21.76 21.76 0 0 1-20.48 0l-294.826667-160.426667-66.56 29.013334a20.906667 20.906667 0 0 0 0 37.12l363.52 213.333333a21.76 21.76 0 0 0 20.48 0l363.52-213.333333a20.906667 20.906667 0 0 0-4.266666-37.12z" p-id="2485" fill="#000000"></path></svg>