<svg xmlns="http://www.w3.org/2000/svg" class="sc-gKckTs hSDKox svg-icon icon mode" viewBox="0 0 13 13" aria-hidden="true"><g transform="translate(0 .5)" fill="#333" fill-rule="evenodd"><rect width="2" height="2" rx="1"></rect><rect y="5" width="2" height="2" rx="1"></rect><rect y="10" width="2" height="2" rx="1"></rect><path d="M13 1a.5.5 0 01-.5.5h-8a.5.5 0 010-1h8a.5.5 0 01.5.5zM13 6a.5.5 0 01-.5.5h-8a.5.5 0 010-1h8a.5.5 0 01.5.5zM13 11a.5.5 0 01-.5.5h-8a.5.5 0 110-1h8a.5.5 0 01.5.5z" fill-rule="nonzero"></path></g></svg>
