<?xml version="1.0" standalone="no"?><!DOCTYPE svg PUBLIC "-//W3C//DTD SVG 1.1//EN" "http://www.w3.org/Graphics/SVG/1.1/DTD/svg11.dtd"><svg t="1624204055244" class="icon" viewBox="0 0 1024 1024" version="1.1" xmlns="http://www.w3.org/2000/svg" p-id="3471" width="13" height="13" xmlns:xlink="http://www.w3.org/1999/xlink"><defs><style type="text/css"></style></defs><path d="M278.016 523.008c0-41.6-33.44-75.008-75.008-75.008A74.816 74.816 0 0 0 128 523.008c0 41.6 33.44 75.008 75.008 75.008 41.6 0 75.008-33.44 75.008-75.008z m150.016 0c0 41.6 33.44 75.008 75.008 75.008 41.6 0 75.008-33.44 75.008-75.008 0-41.6-33.44-75.008-75.008-75.008a74.816 74.816 0 0 0-75.008 75.008z m300.032 0c0 41.6 33.44 75.008 75.008 75.008 41.6 0 75.008-33.44 75.008-75.008 0-41.6-33.44-75.008-75.008-75.008a75.104 75.104 0 0 0-75.008 75.008z" p-id="3472"></path></svg>
