<?xml version="1.0" standalone="no"?><!DOCTYPE svg PUBLIC "-//W3C//DTD SVG 1.1//EN" "http://www.w3.org/Graphics/SVG/1.1/DTD/svg11.dtd"><svg t="1624668212654" class="icon" viewBox="0 0 1024 1024" version="1.1" xmlns="http://www.w3.org/2000/svg" p-id="20168" xmlns:xlink="http://www.w3.org/1999/xlink" width="16" height="16"><defs><style type="text/css"></style></defs><path d="M817.160653 547.502585c-7.897877 10.666944-17.22122 19.808138-27.236318 27.155477-23.044856 30.860868-55.980989 46.862307-85.193311 37.252439-40.36636-13.19144-58.056254-69.6585-39.551808-126.168538 5.801123-17.730826 14.696724-33.019021 25.120121-45.690622l68.296479-160.400177 0 0 28.1532-66.138326C702.105221 127.526465 570.499857 75.352175 391.930879 103.842043 0.249175 166.337399-120.567471 645.520993 133.605416 870.5317c237.84706 210.568786 362.612645 67.13605 452.772061-92.173283 10.19827-18.006096 34.361599-28.570709 54.962799-26.371624 65.568345 6.961552 199.881376-0.387833 246.417249-164.80858 13.027711-46.067198 15.97995-96.67276 9.100262-147.349953L817.160653 547.502585zM231.521492 341.331969c44.886303 0 81.263815 36.377512 81.263815 81.233116 0 44.87607-36.377512 81.253582-81.263815 81.253582-44.865837 0-81.263815-36.377512-81.263815-81.253582C150.257677 377.709481 186.654632 341.331969 231.521492 341.331969zM184.639742 713.206558c-44.845371 0-81.243349-36.377512-81.243349-81.222883 0-44.865837 36.357046-81.262792 81.243349-81.262792 44.886303 0 81.243349 36.377512 81.243349 81.262792C265.883091 676.829046 229.526045 713.206558 184.639742 713.206558zM344.01252 875.704512c-44.86686 0-81.244372-36.357046-81.244372-81.222883 0-44.877093 36.377512-81.254605 81.244372-81.254605 44.906769 0 81.262792 36.377512 81.262792 81.254605C425.275311 839.347466 388.919289 875.704512 344.01252 875.704512zM409.641239 363.216395c-44.86686 0-81.263815-36.367279-81.263815-81.253582 0-44.855604 36.396955-81.233116 81.263815-81.233116 44.865837 0 81.263815 36.377512 81.263815 81.233116C490.906078 326.849116 454.528566 363.216395 409.641239 363.216395z" p-id="20169" fill="#000000"></path><path d="M939.422208 62.690808c-52.601009 3.399423-92.052532 54.331419-92.052532 54.331419l0.448208 0.224104c-2.218528 2.168386-4.397147 4.477988-6.432503 6.921643-35.787064 42.667775-30.209022 106.251929 12.458753 142.03797 42.666752 35.787064 106.240673 30.229488 142.027737-12.44852 12.967336-15.440667 20.418029-33.680077 22.738887-52.336996l0.040932 0.020466c19.379373-91.65549-20.397562-153.529699-20.397562-153.529699S992.02424 59.291384 939.422208 62.690808z" p-id="20170" fill="#000000"></path><path d="M707.154213 575.859423c19.826558 11.541871 52.764738-1.912559 73.568553-30.02585l96.979752-131.004683c-45.171806-10.382465-85.660962-38.371936-111.717408-60.245106-2.402723-2.035356-4.702092-4.000104-6.880711-5.913687l-63.003939 148.043754C682.399413 528.877389 687.346075 564.340065 707.154213 575.859423z" p-id="20171" fill="#000000"></path><path d="M844.235288 277.646508c-16.000416-13.425777-27.400047-30.260188-34.198893-48.560996l-28.947286 68.012c25.567305 25.455765 81.650625 69.731154 132.724861 68.998467l52.887534-71.411423C927.209048 312.192302 879.471814 307.235406 844.235288 277.646508z" p-id="20172" fill="#000000"></path></svg>