<?xml version="1.0" standalone="no"?><!DOCTYPE svg PUBLIC "-//W3C//DTD SVG 1.1//EN" "http://www.w3.org/Graphics/SVG/1.1/DTD/svg11.dtd"><svg t="1624669720735" class="icon" viewBox="0 0 1024 1024" version="1.1" xmlns="http://www.w3.org/2000/svg" p-id="21868" xmlns:xlink="http://www.w3.org/1999/xlink" width="16" height="16"><defs><style type="text/css"></style></defs><path d="M47.786667 820.394667s-6.229333 63.573333 30.976 101.632c30.890667 31.829333 86.613333 25.429333 86.613333 25.429333l272.213333-292.266667-111.274666-108.032L47.786667 820.394667z m563.2-228.778667L295.253333 280.149333 289.109333 191.146667l-123.733333-76.202667-30.976 31.829333-37.12 38.144-30.890667 31.658667 74.24 120.832 80.469334 6.4 321.706666 317.781333-68.010666 69.888c99.072 95.317333 191.829333 196.949333 290.901333 292.352 98.986667-25.429333 154.709333-95.402667 191.829333-190.72L666.624 540.757333l-55.722667 50.858667z m-18.602667-108.032l49.493333-50.858667c98.986667 44.544 197.973333 25.429333 266.154667-31.744 68.096-57.258667 68.096-171.690667 68.096-171.690666l-49.493333-19.114667L827.562667 318.293333 666.624 159.402667 771.925333 51.370667 753.322667 0.512s-105.216 0-173.312 69.973333a232.106667 232.106667 0 0 0-37.12 266.837334l-49.493334 44.544 98.986667 101.632z" fill="#000000" p-id="21869"></path></svg>