<?xml version="1.0" standalone="no"?><!DOCTYPE svg PUBLIC "-//W3C//DTD SVG 1.1//EN" "http://www.w3.org/Graphics/SVG/1.1/DTD/svg11.dtd"><svg t="1624631885795" class="icon" viewBox="0 0 1024 1024" version="1.1" xmlns="http://www.w3.org/2000/svg" p-id="68659" xmlns:xlink="http://www.w3.org/1999/xlink" width="16" height="16"><defs><style type="text/css"></style></defs><path d="M866.30182 474.87s-7.17-234-199.38-280.5S382.09182 348.7 380.18182 354.43s-11.34 3.12-11.34 3.12c-15.36-14.44-83.11-47.6-154.3-5.08s-45.36 123.27-45.36 123.27-105.43-8.49-159.5 152.94C-44.30818 790.26 145.11182 836 145.11182 836h318V664.16h-73.56v-0.29a6.48 6.48 0 0 1-3.66-11.9L516.20182 516.08a9.64 9.64 0 0 1 15 0.36l129.35 134.81a4.28 4.28 0 0 1 0.66 0.58l1.24 1.3h-0.44a6.81 6.81 0 0 1 1.1 3.56 7.42 7.42 0 0 1-7.46 7.4c-0.15 0-0.15-0.14-0.3-0.14v0.29H585.30182v171.88h288.6s137.62-34.18 149.76-175.12C1035.95182 520.14 866.30182 474.87 866.30182 474.87z" p-id="68660" fill="#000000"></path></svg>