<?xml version="1.0" standalone="no"?><!DOCTYPE svg PUBLIC "-//W3C//DTD SVG 1.1//EN" "http://www.w3.org/Graphics/SVG/1.1/DTD/svg11.dtd"><svg t="1624116057017" class="icon" viewBox="0 0 1024 1024" version="1.1" xmlns="http://www.w3.org/2000/svg" p-id="6473" width="32" height="32" xmlns:xlink="http://www.w3.org/1999/xlink"><defs><style type="text/css"></style></defs><path d="M0 512a512 512 0 1 0 1024 0A512 512 0 0 0 0 512z" fill="#FAAF46" p-id="6474"></path><path d="M512 853.312c-51.2 0-85.312-34.112-85.312-85.312 0-51.2 34.112-85.312 85.312-85.312 51.2 0 85.312 34.112 85.312 85.312 0 51.2-34.112 85.312-85.312 85.312z m0-256C460.8 597.312 426.688 563.2 426.688 512V256c0-51.2 34.112-85.312 85.312-85.312 51.2 0 85.312 34.112 85.312 85.312v256c0 51.2-34.112 85.312-85.312 85.312z" fill="#FFFFFF" p-id="6475"></path></svg>