<?xml version="1.0" standalone="no"?><!DOCTYPE svg PUBLIC "-//W3C//DTD SVG 1.1//EN" "http://www.w3.org/Graphics/SVG/1.1/DTD/svg11.dtd"><svg t="1624679234140" class="icon" viewBox="0 0 1024 1024" version="1.1" xmlns="http://www.w3.org/2000/svg" p-id="23787" xmlns:xlink="http://www.w3.org/1999/xlink" width="16" height="16"><defs><style type="text/css"></style></defs><path d="M591.104 164.437333l268.458667 268.458667A21.333333 21.333333 0 0 0 896 417.834667V170.666667a42.666667 42.666667 0 0 0-42.666667-42.666667h-247.168a21.333333 21.333333 0 0 0-15.061333 36.437333z" fill="#000000" p-id="23788"></path><path d="M274.048 695.722667l422.4-422.4a42.666667 42.666667 0 1 1 60.288 60.373333l-422.4 422.4a42.666667 42.666667 0 0 1-60.288-60.373333z" fill="#000000" p-id="23789"></path><path d="M591.104 859.562667l268.458667-268.458667a21.333333 21.333333 0 0 1 36.437333 15.061333V853.333333a42.666667 42.666667 0 0 1-42.666667 42.666667h-247.168a21.333333 21.333333 0 0 1-15.061333-36.437333zM432.896 164.437333l-268.458667 268.458667A21.333333 21.333333 0 0 1 128 417.834667V170.666667a42.666667 42.666667 0 0 1 42.666667-42.666667h247.168a21.333333 21.333333 0 0 1 15.061333 36.437333z" fill="#000000" p-id="23790"></path><path d="M432.896 859.562667l-268.458667-268.458667a21.333333 21.333333 0 0 0-36.437333 15.061333V853.333333a42.666667 42.666667 0 0 0 42.666667 42.666667h247.168a21.333333 21.333333 0 0 0 15.061333-36.437333z" fill="#000000" p-id="23791"></path></svg>