<?xml version="1.0" standalone="no"?><!DOCTYPE svg PUBLIC "-//W3C//DTD SVG 1.1//EN" "http://www.w3.org/Graphics/SVG/1.1/DTD/svg11.dtd"><svg t="1624679072414" class="icon" viewBox="0 0 1028 1024" version="1.1" xmlns="http://www.w3.org/2000/svg" p-id="14571" xmlns:xlink="http://www.w3.org/1999/xlink" width="16.0625" height="16"><defs><style type="text/css"></style></defs><path d="M1005.380997 921.484532l-145.146866-145.083178a480.787055 480.787055 0 1 0-84.387714 84.196647l145.146867 145.146867a59.612754 59.612754 0 1 0 84.324025-84.260336zM95.140093 483.050556A387.610282 387.610282 0 1 1 482.750375 870.53346a387.992415 387.992415 0 0 1-387.610282-387.482904z m548.934114-45.601209H528.351584V321.726724a45.60121 45.60121 0 0 0-91.202419 0V437.449347H321.426542a45.60121 45.60121 0 0 0 0 91.202419h116.041067v115.722622a45.60121 45.60121 0 0 0 91.202419 0V528.651766h115.722623a45.60121 45.60121 0 0 0 0-91.202419z m0 0" fill="#000000" p-id="14572"></path></svg>