<?xml version="1.0" standalone="no"?><!DOCTYPE svg PUBLIC "-//W3C//DTD SVG 1.1//EN" "http://www.w3.org/Graphics/SVG/1.1/DTD/svg11.dtd"><svg t="1624679112900" class="icon" viewBox="0 0 1024 1024" version="1.1" xmlns="http://www.w3.org/2000/svg" p-id="15432" xmlns:xlink="http://www.w3.org/1999/xlink" width="16" height="16"><defs><style type="text/css"></style></defs><path d="M928.4096 901.632l-120.5248-163.328a429.7728 429.7728 0 0 0 130.048-308.7872C937.984 192.3072 747.1104 0 511.6416 0c-235.52 0-426.3936 192.3072-426.3936 429.5168 0 237.1584 190.8736 429.4656 426.3936 429.4656 56.832 0 111.0528-11.2128 160.6656-31.5392l124.2112 168.3968c17.6128 23.9104 51.5584 29.184 75.8784 11.8272l43.9808-31.4368c24.2176-17.3056 29.6448-50.7392 12.032-74.5984z m-416.768-149.8112c-176.9472 0-320.4096-144.3328-320.4096-322.4064 0-178.0224 143.4624-322.4064 320.4096-322.4064 177.0496 0 320.512 144.3328 320.512 322.4064 0 178.0736-143.5136 322.4064-320.512 322.4064z" p-id="15433" fill="#000000"></path><path d="M742.4 435.2c0 30.6176-28.8256 55.4496-64.4096 55.4496H346.0096C310.4256 490.6496 281.6 465.8176 281.6 435.2s28.8256-55.4496 64.4096-55.4496h331.9808c35.584 0 64.4096 24.832 64.4096 55.4496z" p-id="15434" fill="#000000"></path></svg>