<?xml version="1.0" standalone="no"?><!DOCTYPE svg PUBLIC "-//W3C//DTD SVG 1.1//EN"
        "http://www.w3.org/Graphics/SVG/1.1/DTD/svg11.dtd">
<svg class="icon" width="200px" height="200.00px" viewBox="0 0 1024 1024" version="1.1"
     xmlns="http://www.w3.org/2000/svg">
    <path fill="#ffffff"
          d="M586.381058 322.734402M191.902658 168.881338l639.606283 0 0 87.020936-639.606283 0 0-87.020936ZM703.58748 232.842069c0 23.060205-63.960731 23.060205-74.006528 22.453385L361.846188 255.295454c-42.022069 0.607844-42.022069 0.607844-42.022069-22.453385l0-17.839297c0-48.060599 25.973558-87.020936 58.014298-87.020936l267.734764 0c32.04074 0 58.014298 38.960337 58.014298 87.020936L703.58748 232.842069zM688.753633 319.863005 334.657966 319.863005c-14.833847 0-78.794577 0-78.794577 0l0 511.684822c0 43.517119 35.277458 63.960731 78.794577 63.960731l354.095667 0c43.517119 0 78.794577-20.443611 78.794577-63.960731L767.54821 319.863005C767.54821 319.863005 732.270752 319.863005 688.753633 319.863005zM447.74558 767.588119 383.78485 767.588119 383.78485 447.784466l63.960731 0L447.74558 767.588119zM639.627772 767.588119l-63.960731 0L575.667042 447.784466l63.960731 0L639.627772 767.588119z"/>
</svg>
