<?xml version="1.0" standalone="no"?><!DOCTYPE svg PUBLIC "-//W3C//DTD SVG 1.1//EN" "http://www.w3.org/Graphics/SVG/1.1/DTD/svg11.dtd"><svg t="1623581238550" class="icon" viewBox="0 0 1024 1024" version="1.1" xmlns="http://www.w3.org/2000/svg" p-id="3266" width="16" height="16" xmlns:xlink="http://www.w3.org/1999/xlink"><defs><style type="text/css"></style></defs><path d="M834 128H602c-33.137 0-60 26.863-60 60v110c0 33.137 26.863 60 60 60h232c33.137 0 60-26.863 60-60V188c0-33.137-26.863-60-60-60z m0 170H602V188h232v110zM422 128H190c-33.137 0-60 26.863-60 60v644c0 33.137 26.863 60 60 60h232c33.137 0 60-26.863 60-60V188c0-33.137-26.863-60-60-60z m0 704H190V188h232v644zM834 418H602c-33.137 0-60 26.863-60 60v354c0 33.137 26.863 60 60 60h232c33.137 0 60-26.863 60-60V478c0-33.137-26.863-60-60-60z m0 414H602V478h232v354z" p-id="3267"></path></svg>